<svg id="Layer_2" data-name="Layer 2" xmlns="http://www.w3.org/2000/svg" viewBox="0 0 451.58 1824.99"><defs><style>.cls-1{fill:none;stroke:#ee2d2b;stroke-linecap:round;stroke-linejoin:round;stroke-width:6px;}</style></defs>
<line class="cls-1" x1="84.23" y1="230.08" x2="111.13" y2="230.08"/>
<line class="cls-1" x1="113.36" y1="48.1" x2="113.36" y2="229.95"/>
<line class="cls-1" x1="85.02" y1="45.33" x2="111.13" y2="45.33"/>
<line class="cls-1" x1="113.37" y1="3" x2="113.37" y2="45.33"/>
<line class="cls-1" x1="249.13" y1="158.14" x2="112.52" y2="294.76"/>
<line class="cls-1" x1="321.59" y1="85.68" x2="249.13" y2="158.14"/>
<line class="cls-1" x1="112.71" y1="232.45" x2="112.71" y2="317.51"/>
<line class="cls-1" x1="110.34" y1="316.71" x2="90.96" y2="316.71"/>
<line class="cls-1" x1="112.71" y1="320.27" x2="112.71" y2="359.04"/>
<line class="cls-1" x1="112.71" y1="358.65" x2="207.46" y2="453.4"/>
<line class="cls-1" x1="448.58" y1="215.04" x2="261.66" y2="401.97"/>
<line class="cls-1" x1="275.7" y1="420.76" x2="262.65" y2="407.7"/>
<line class="cls-1" x1="208.05" y1="454.78" x2="257.7" y2="405.13"/>
<line class="cls-1" x1="157.75" y1="504.96" x2="175.02" y2="522.23"/>
<line class="cls-1" x1="206.08" y1="456.49" x2="158.8" y2="503.77"/>
<line class="cls-1" x1="112.19" y1="360.89" x2="112.19" y2="446.87"/>
<line class="cls-1" x1="111.66" y1="451.62" x2="204.49" y2="451.62"/>
<line class="cls-1" x1="111.66" y1="454.25" x2="111.66" y2="541.81"/>
<line class="cls-1" x1="154.38" y1="507.53" x2="111.13" y2="550.78"/>
<line class="cls-1" x1="54.96" y1="452.67" x2="109.55" y2="452.67"/>
<line class="cls-1" x1="4.05" y1="452.67" x2="54.96" y2="452.67"/>
<line class="cls-1" x1="3.53" y1="454.78" x2="3.53" y2="573.99"/>
<line class="cls-1" x1="24.1" y1="573.46" x2="6.69" y2="573.46"/>
<line class="cls-1" x1="111.66" y1="546.03" x2="111.66" y2="751.75"/>
<line class="cls-1" x1="129.07" y1="749.64" x2="112.19" y2="749.64"/>
<line class="cls-1" x1="111.66" y1="940.58" x2="111.66" y2="753.86"/>
<polyline class="cls-1" points="129.59 941.64 111.66 942.16 111.66 940.58"/>
<line class="cls-1" x1="3.53" y1="577.15" x2="3.53" y2="745.42"/>
<line class="cls-1" x1="107.44" y1="749.64" x2="3" y2="749.64"/>
<line class="cls-1" x1="110.6" y1="944.27" x2="68.14" y2="986.74"/>
<line class="cls-1" x1="67.35" y1="989.64" x2="67.35" y2="1037.11"/>
<line class="cls-1" x1="44.67" y1="1037.11" x2="65.24" y2="1037.11"/>
<line class="cls-1" x1="66.82" y1="1039.22" x2="66.82" y2="1266.56"/>
<path class="cls-1" d="M1490.81,1740.1" transform="translate(-1424.52 -471.43)"/>
<line class="cls-1" x1="66.3" y1="1262.87" x2="140.41" y2="1336.98"/>
<line class="cls-1" x1="157.55" y1="1315.62" x2="138.82" y2="1334.34"/>
<line class="cls-1" x1="66.3" y1="1268.67" x2="66.3" y2="1375.75"/>
<line class="cls-1" x1="44.67" y1="1376.8" x2="64.71" y2="1376.8"/>
<line class="cls-1" x1="141.2" y1="1339.88" x2="66.82" y2="1414.25"/>
<line class="cls-1" x1="65.77" y1="1378.91" x2="65.77" y2="1412.14"/>
<line class="cls-1" x1="143.31" y1="1340.93" x2="175.22" y2="1372.85"/>
<line class="cls-1" x1="194.47" y1="1353.07" x2="176.8" y2="1370.74"/>
<line class="cls-1" x1="177.07" y1="1374.69" x2="329.77" y2="1527.4"/>
<line class="cls-1" x1="331.62" y1="1529.77" x2="402.56" y2="1458.82"/>
<line class="cls-1" x1="333.73" y1="1531.35" x2="367.48" y2="1565.11"/>
<line class="cls-1" x1="65.77" y1="1416.89" x2="65.77" y2="1670.08"/>
<line class="cls-1" x1="68.41" y1="1669.55" x2="173.9" y2="1669.55"/>
<polyline class="cls-1" points="64.71 1672.19 64.71 1751.31 62.08 1750.78 20.93 1750.78"/>
<line class="cls-1" x1="64.71" y1="1753.95" x2="64.71" y2="1821.99"/>
<polyline class="cls-1" points="67.88 1821.46 144.36 1821.46 146.47 1819.88 159.92 1806.43"/>
<line class="cls-1" x1="54.69" y1="412.05" x2="54.69" y2="451.09"/>
<path class="cls-1" d="M1537.63,924.63" transform="translate(-1424.52 -471.43)"/>
<line class="cls-1" x1="155.84" y1="503.84" x2="114.3" y2="454.78"/>
<path class="cls-1" d="M1569.27,995.44" transform="translate(-1424.52 -471.43)"/></svg>