<svg id="svg" xmlns="http://www.w3.org/2000/svg" viewBox="0 0 106.74 142.32"><defs><style>.cls-1{fill:#f2f2f2;}.cls-2{fill:gray;}</style></defs><path id="marker" class="cls-1" d="M144.15,240.45c-40.39-58.55-47.89-64.56-47.89-86.08a53.37,53.37,0,0,1,106.74,0c0,21.52-7.5,27.53-47.88,86.08a6.67,6.67,0,0,1-11,0Z" transform="translate(-96.26 -101)"/><path id="icon" class="cls-2" d="M177.56,167.11v-44a3.14,3.14,0,0,0-3.15-3.14H131.49a12.57,12.57,0,0,0-12.56,12.56v41.88A12.57,12.57,0,0,0,131.49,187h42.92a3.14,3.14,0,0,0,3.15-3.14v-2.09a3.14,3.14,0,0,0-1.17-2.45,29.19,29.19,0,0,1,0-9.78,3.1,3.1,0,0,0,1.17-2.43Zm-41.88-29.57a.79.79,0,0,1,.79-.79h27.74a.78.78,0,0,1,.78.79v2.61a.79.79,0,0,1-.78.79H136.47a.79.79,0,0,1-.79-.79Zm0,8.37a.79.79,0,0,1,.79-.79h27.74a.79.79,0,0,1,.78.79v2.62a.78.78,0,0,1-.78.78H136.47a.78.78,0,0,1-.79-.78Zm33.16,32.71H131.49a4.19,4.19,0,0,1,0-8.37h37.35A46.8,46.8,0,0,0,168.84,178.62Z" transform="translate(-96.26 -101)"/></svg>