<svg id="svg" xmlns="http://www.w3.org/2000/svg" viewBox="0 0 220.74 294.32"><defs><style>.cls-1{fill:#f2f2f2;}.cls-2{fill:gray;}</style></defs><path id="marker" class="cls-1" d="M138.29,291.38c-83.53-121.08-99-133.51-99-178a110.37,110.37,0,0,1,220.74,0c0,44.5-15.5,56.93-99,178a13.79,13.79,0,0,1-22.68,0Z" transform="translate(-39.26 -3)"/><rect class="cls-2" x="95.24" y="95.5" width="79" height="79" rx="2.5"/><path class="cls-2" d="M211,99a2,2,0,0,1,2,2v74a2,2,0,0,1-2,2H137a2,2,0,0,1-2-2V101a2,2,0,0,1,2-2h74m0-1H137a3,3,0,0,0-3,3v74a3,3,0,0,0,3,3h74a3,3,0,0,0,3-3V101a3,3,0,0,0-3-3Z" transform="translate(-39.26 -3)"/><rect class="cls-2" x="71.24" y="119.5" width="79" height="55" rx="2.5"/><path class="cls-2" d="M187,123a2,2,0,0,1,2,2v50a2,2,0,0,1-2,2H113a2,2,0,0,1-2-2V125a2,2,0,0,1,2-2h74m0-1H113a3,3,0,0,0-3,3v50a3,3,0,0,0,3,3h74a3,3,0,0,0,3-3V125a3,3,0,0,0-3-3Z" transform="translate(-39.26 -3)"/><rect class="cls-2" x="119.24" y="71.5" width="55" height="79" rx="2.5"/><path class="cls-2" d="M211,75a2,2,0,0,1,2,2v74a2,2,0,0,1-2,2H161a2,2,0,0,1-2-2V77a2,2,0,0,1,2-2h50m0-1H161a3,3,0,0,0-3,3v74a3,3,0,0,0,3,3h50a3,3,0,0,0,3-3V77a3,3,0,0,0-3-3Z" transform="translate(-39.26 -3)"/><rect class="cls-2" x="145.24" y="46.5" width="29" height="79" rx="2.5"/><path class="cls-2" d="M211,50a2,2,0,0,1,2,2v74a2,2,0,0,1-2,2H187a2,2,0,0,1-2-2V52a2,2,0,0,1,2-2h24m0-1H187a3,3,0,0,0-3,3v74a3,3,0,0,0,3,3h24a3,3,0,0,0,3-3V52a3,3,0,0,0-3-3Z" transform="translate(-39.26 -3)"/><rect class="cls-2" x="46.24" y="145.5" width="79" height="29" rx="2.5"/><path class="cls-2" d="M162,149a2,2,0,0,1,2,2v24a2,2,0,0,1-2,2H88a2,2,0,0,1-2-2V151a2,2,0,0,1,2-2h74m0-1H88a3,3,0,0,0-3,3v24a3,3,0,0,0,3,3h74a3,3,0,0,0,3-3V151a3,3,0,0,0-3-3Z" transform="translate(-39.26 -3)"/></svg>