<svg id="svg" xmlns="http://www.w3.org/2000/svg" viewBox="0 0 106.74 142.32"><defs><style>.cls-1{fill:#f2f2f2;}.cls-2{fill:#ffc60b;}</style></defs><path id="marker" class="cls-1" d="M144.15,240.45c-40.39-58.55-47.89-64.56-47.89-86.08a53.37,53.37,0,0,1,106.74,0c0,21.52-7.5,27.53-47.88,86.08a6.67,6.67,0,0,1-11,0Z" transform="translate(-96.26 -101)"/><path id="icon" class="cls-2" d="M126.72,136.82a7.54,7.54,0,1,0-7.54-7.54A7.54,7.54,0,0,0,126.72,136.82Zm45.21,0a7.54,7.54,0,1,0-7.53-7.54A7.55,7.55,0,0,0,171.93,136.82Zm15,26.67-5.37-21.88a3.87,3.87,0,0,0-3.51-2.85,11.15,11.15,0,0,1-12.24,0,3.87,3.87,0,0,0-3.51,2.85l-5.37,21.88a2.89,2.89,0,0,0,2.91,3.47h6.45v12.25a2.82,2.82,0,0,0,2.83,2.82h5.65a2.82,2.82,0,0,0,2.82-2.82V167H184A2.86,2.86,0,0,0,186.92,163.49Zm-35.71-41.74h-3.77a1.88,1.88,0,0,0-1.88,1.88v56.52a1.88,1.88,0,0,0,1.88,1.88h3.77a1.88,1.88,0,0,0,1.88-1.88V123.63A1.89,1.89,0,0,0,151.21,121.75Zm-18.36,17a11.15,11.15,0,0,1-12.27,0,5.63,5.63,0,0,0-5.17,5.6v16a2.82,2.82,0,0,0,2.83,2.82h.94v16A2.82,2.82,0,0,0,122,182h9.42a2.82,2.82,0,0,0,2.82-2.82v-16h.94a2.82,2.82,0,0,0,2.83-2.82v-16A5.63,5.63,0,0,0,132.85,138.75Z" transform="translate(-96.26 -101)"/></svg>