<svg xmlns="http://www.w3.org/2000/svg" viewBox="0 0 1977.89 2246.26">
    <defs>
        <style>
            .cls-1{fill:#ec008c;}.cls-1,.cls-2,.cls-3,.cls-4{stroke:#000;}.cls-1,.cls-2,.cls-3,.cls-4,.cls-5,.cls-6{stroke-miterlimit:10;}.cls-1,.cls-2,.cls-3,.cls-4,.cls-5{stroke-width:3px;}.cls-2,.cls-7{fill:none;}.cls-3{fill:#ffc60b;}.cls-4,.cls-5{fill:#7f7f7f;}.cls-5{stroke:#200;}.cls-6{fill:#fff;stroke:#f55;stroke-width:4px;}.cls-7{stroke:#ee2d2b;stroke-linecap:round;stroke-linejoin:round;stroke-width:8px;}
        </style>
    </defs>
    <g id="_2_drawn_base">
        <g id="walls">
            <line class="cls-1" x1="1140.84" y1="2063.79" x2="1237.76" y2="2063.79"/>
            <polyline class="cls-2" points="1518.12 1870.34 1564.53 1916.75 1575.35 1905.94 1606.36 1936.95"/>
            <polyline class="cls-2" points="1433.98 2046.78 1351.3 2129.46 1327.57 2105.72"/>
            <line class="cls-3" x1="1505.59" y1="1975.17" x2="1523.39" y2="1957.37"/>
            <polyline class="cls-2" points="1303.13 1333.4 1340.03 1296.51 1345.37 1296.51"/>
            <polygon class="cls-2"
                     points="1303.43 1.5 1303.43 283.96 1144.4 283.96 1144.4 603.21 901.1 603.21 901.1 516.58 740.88 516.58 740.88 603.21 81.02 603.21 81.02 774.25 1.5 774.25 1.5 939.08 498.18 1435.76 830.49 1103.46 1140.84 1103.46 1140.84 2242.2 1481.46 2242.2 1975.17 1748.49 1480.27 1253.59 1480.27 1107.61 1975.76 612.12 1479.68 116.03 1479.68 1.5 1303.43 1.5"/>
        </g>
        <g id="misc">
            <polygon class="cls-4"
                     points="81.02 774.25 335.26 774.25 335.26 699.61 416 699.61 416 603.21 81.02 603.21 81.02 774.25"/>
            <polyline class="cls-4"
                      points="830.49 1103.46 657.21 930.18 600.45 986.95 564.45 950.95 584.32 931.07 491.75 838.5 460.4 869.85 430.29 839.74 239.26 839.74 206.6 872.4 191.39 857.19 1.5 857.19 1.5 939.08 498.18 1435.76 828.81 1105.14"/>
            <polyline class="cls-4"
                      points="1606.36 1936.95 1696.53 2027.13 1481.46 2242.2 1351.83 2242.2 1351.83 2191.7 1606.47 1937.06"/>
            <polygon class="cls-4"
                     points="1308.97 1848.18 1308.97 1911.21 1477.24 1911.21 1518.12 1870.34 1388.13 1740.35 1388.13 1826.82 1308.99 1747.68 1308.97 1848.18"/>
            <polygon class="cls-4"
                     points="1444.27 1395.61 1533.28 1306.6 1480.27 1253.59 1480.27 1107.61 1975.76 612.12 1479.68 116.03 1479.68 1.5 1303.43 1.5 1303.43 283.96 1144.4 283.96 1144.4 603.21 1144.4 632.88 1308.97 632.88 1308.97 993.68 1275.74 993.68 1275.74 1218.38 1345.37 1218.38 1345.37 1297.5 1444.27 1395.61"/>
            <polygon class="cls-5" points="1140.84 1103.46 986.06 948.68 831.15 1103.59 1140.84 1103.46"/>
            <line class="cls-5" x1="740.88" y1="603.21" x2="901.1" y2="603.21"/>
        </g>
        <g id="toilets">
            <rect class="cls-3" x="335.26" y="699.61" width="80.74" height="74.64"/>
            <polygon class="cls-3"
                     points="1477.24 1911.21 1459.43 1929.02 1505.59 1975.17 1433.98 2046.78 1411.04 2023.83 1327.17 2023.83 1327.17 1983.48 1308.97 1983.48 1308.97 1911.21 1477.24 1911.21"/>
            <polyline class="cls-3"
                      points="1275.74 1218.38 1275.74 1306.2 1388.09 1417.76 1388.09 1826.82 1308.97 1747.7 1308.97 1848.18 1275.74 1848.18 1275.74 1821.28 1252.01 1821.28 1252.01 1796.75 1227.48 1796.75 1227.48 1612.4 1264.66 1612.4 1264.66 1541.19 1227.48 1541.19 1227.48 1306.2 1275.74 1306.2"/>
        </g>
        <g id="stairsElevator">
            <polygon class="cls-1"
                     points="1308.97 744.84 1079.52 744.84 1079.52 603.21 1144.4 603.21 1144.4 632.88 1308.97 632.88 1308.97 744.84"/>
            <rect class="cls-1" x="1247.65" y="824.75" width="61.32" height="168.53"/>
            <rect class="cls-1" x="1140.84" y="1981.9" width="97.45" height="260.31"/>
        </g>
        <g id="doors">
            <line class="cls-6" x1="1275.72" y1="1271.79" x2="1275.76" y2="1253.98"/>
            <line class="cls-6" x1="1316.61" y1="1320.17" x2="1329.23" y2="1307.6"/>
            <line class="cls-6" x1="1264.6" y1="1566.37" x2="1264.63" y2="1548.56"/>
            <line class="cls-6" x1="1264.62" y1="1602.19" x2="1264.65" y2="1584.38"/>
            <line class="cls-6" x1="1238.24" y1="2050.41" x2="1238.35" y2="1996.61"/>
            <line class="cls-6" x1="1238.33" y1="2093.26" x2="1238.36" y2="2075.45"/>
            <line class="cls-6" x1="1334.81" y1="2242.26" x2="1279.84" y2="2242.15"/>
            <line class="cls-6" x1="1308.95" y1="1975.17" x2="1308.99" y2="1957.36"/>
            <line class="cls-6" x1="1247.5" y1="987.59" x2="1247.81" y2="830.53"/>
            <line class="cls-6" x1="1298.09" y1="744.87" x2="1247.32" y2="744.77"/>
            <line class="cls-6" x1="877.3" y1="516.63" x2="826.53" y2="516.53"/>
            <line class="cls-6" x1="817.96" y1="516.68" x2="767.19" y2="516.58"/>
            <line class="cls-6" x1="415.98" y1="722.79" x2="416.01" y2="704.98"/>
            <line class="cls-6" x1="415.99" y1="769.07" x2="416.03" y2="751.26"/>
            <line class="cls-6" x1="1558.43" y1="1910.67" x2="1545.86" y2="1898.05"/>
            <line class="cls-6" x1="1476.57" y1="1945.91" x2="1464" y2="1933.29"/>
            <line class="cls-6" x1="1500.57" y1="1969.99" x2="1488" y2="1957.37"/>
            <line class="cls-6" x1="877.3" y1="603.24" x2="826.53" y2="603.14"/>
            <line class="cls-6" x1="817.96" y1="603.29" x2="767.19" y2="603.19"/>
        </g>
    </g>
    <g id="_2_routes">
        <line class="cls-7" x1="429.94" y1="740.49" x2="851.92" y2="740.49"/>
        <line class="cls-7" x1="851.92" y1="537.15" x2="851.92" y2="619.43"/>
        <line class="cls-7" x1="851.92" y1="620.71" x2="851.92" y2="740.14"/>
        <path class="cls-7" d="M1060.42,758.16" transform="translate(-207.69 -137.46)"/>
        <line class="cls-7" x1="852.73" y1="620.71" x2="1014.2" y2="782.18"/>
        <line class="cls-7" x1="1224.21" y1="782.18" x2="1272.71" y2="782.18"/>
        <line class="cls-7" x1="1014.77" y1="782.18" x2="1224.21" y2="782.18"/>
        <line class="cls-7" x1="1272.71" y1="744.87" x2="1272.71" y2="782.18"/>
        <line class="cls-7" x1="1014.45" y1="782.18" x2="1142.05" y2="909.78"/>
        <line class="cls-7" x1="1210.31" y1="909.78" x2="1224.05" y2="909.78"/>
        <line class="cls-7" x1="1142.32" y1="909.78" x2="1210.31" y2="909.78"/>
        <line class="cls-7" x1="1224.41" y1="909.78" x2="1247.81" y2="909.78"/>
        <line class="cls-7" x1="1224.21" y1="909.78" x2="1224.21" y2="783.61"/>
        <line class="cls-7" x1="1142.18" y1="909.93" x2="1176.11" y2="943.87"/>
        <line class="cls-7" x1="1176.11" y1="1576.4" x2="1176.11" y2="1870.34"/>
        <line class="cls-7" x1="1176.11" y1="1262.29" x2="1176.11" y2="1576.4"/>
        <line class="cls-7" x1="1176.11" y1="1163.29" x2="1176.11" y2="1262.29"/>
        <line class="cls-7" x1="1176.11" y1="944.08" x2="1176.11" y2="1163.29"/>
        <line class="cls-7" x1="1176.11" y1="1870.63" x2="1270.08" y2="1964.6"/>
        <line class="cls-7" x1="1270.08" y1="2021.85" x2="1270.08" y2="2084.36"/>
        <line class="cls-7" x1="1270.08" y1="1964.88" x2="1270.08" y2="2021.85"/>
        <line class="cls-7" x1="1307.43" y1="2122.1" x2="1347.55" y2="2162.22"/>
        <line class="cls-7" x1="1270.08" y1="2084.75" x2="1307.43" y2="2122.1"/>
        <polyline class="cls-7" points="1348.04 2162.22 1557.64 1952.62 1557.21 1952.62 1531.85 1927.25"/>
        <line class="cls-7" x1="1531.65" y1="1927.25" x2="1494.75" y2="1964.15"/>
        <line class="cls-7" x1="1531.75" y1="1927.13" x2="1553.33" y2="1905.55"/>
        <line class="cls-7" x1="1307.33" y1="2203.04" x2="1307.33" y2="2122.34"/>
        <line class="cls-7" x1="1307.33" y1="2242.26" x2="1307.33" y2="2203.04"/>
        <line class="cls-7" x1="1269.86" y1="2084.75" x2="1238.36" y2="2084.75"/>
        <line class="cls-7" x1="1269.66" y1="2021.6" x2="1238.24" y2="2021.6"/>
        <line class="cls-7" x1="1308.99" y1="1964.88" x2="1270.08" y2="1964.88"/>
        <line class="cls-7" x1="1176.35" y1="1576.4" x2="1252.01" y2="1576.4"/>
        <line class="cls-7" x1="1275.72" y1="1262.88" x2="1176.11" y2="1262.88"/>
        <line class="cls-7" x1="1275.76" y1="1263.28" x2="1176.11" y2="1163.48"/>
        <line class="cls-7" x1="1275.99" y1="1263.28" x2="1322.65" y2="1313.89"/>
        <line class="cls-7" x1="852.25" y1="740.49" x2="1013.92" y2="782.18"/>
        <line class="cls-7" x1="1347.79" y1="2162.44" x2="1307.36" y2="2202.87"/>
        <line class="cls-7" x1="1176.35" y1="943.87" x2="1210.31" y2="909.9"/>
    </g>
</svg>