<svg xmlns="http://www.w3.org/2000/svg" viewBox="0 0 912.36 2255.97"><defs><style>.cls-1,.cls-2{fill:#b1b1b1;}.cls-2,.cls-3,.cls-4,.cls-5,.cls-6{stroke:#7f7f7f;stroke-width:3px;}.cls-2,.cls-3,.cls-4,.cls-5,.cls-6,.cls-9{stroke-linecap:round;stroke-linejoin:round;}.cls-3,.cls-9{fill:none;}.cls-4{fill:#00aeef;}.cls-5{fill:#ffc60b;}.cls-6,.cls-7{fill:#ec008c;}.cls-8{fill:#fff;stroke:#f55;stroke-miterlimit:10;stroke-width:4px;}.cls-9{stroke:#ee2d2b;stroke-width:8px;}</style></defs><g id="Layer_3" >
<g id="etc">
<polygon class="cls-1" points="70.07 616.27 243.35 616.27 243.35 636.84 70.33 636.84 70.07 616.27"/>
<polygon class="cls-1" points="232 210.97 323.42 210.97 420.17 114.23 420.17 1.5 232.53 1.5 232 210.97"/>
<path class="cls-2" d="M1560.7,473.64V707.83l118.68-118.68-11.2-11.21L1717,529.15,1611.21,423.4S1560.7,473.74,1560.7,473.64Z" transform="translate(-1272.26 -134.29)"/>
<polyline class="cls-2" points="531.02 481.37 386.52 625.86 340.93 580.27 306.71 614.49 306.71 701.98 359.56 754.83 581.98 532.4 530.98 481.4"/>
<polyline class="cls-3" points="582.25 532.14 359.46 754.93 306.51 701.98 306.51 614.29 485.19 435.61"/>
<polygon class="cls-2" points="327.48 1021.57 280.9 1068.15 373.57 1068.15 327.48 1021.57"/>
<path class="cls-2" d="M1553.15,1437.13l44.95,44.95,45.05-45Z" transform="translate(-1272.26 -134.29)"/>
<polyline class="cls-1" points="73.37 1259.26 73.37 1332.31 196.66 1332.31 196.66 1311.35 170.82 1311.35 118.47 1258.99 73.37 1259.26"/>
<polyline class="cls-2" points="73.1 1986.12 73.1 2069.32 172.8 2069.32 172.8 1986.12"/>
<path class="cls-1" d="M1778.35,2048.74l-213-213-48,48v166.82h165.49l46.82,46.81S1777.86,2048.24,1778.35,2048.74Z" transform="translate(-1272.26 -134.29)"/>
<polygon class="cls-2" points="288.02 2254.07 288.02 2197.9 325.81 2160.1 415.04 2249.32 409.9 2254.47 288.02 2254.07"/>
</g>
<g id="classes">
<polygon class="cls-4" points="419.79 114.91 323.52 211.17 231.74 211.17 231.74 280.4 244.2 292.86 237.54 299.52 237.54 339.25 288.46 339.25 338.91 288.8 510.51 460.4 632.03 338.88 420.05 126.91 419.79 114.91"/>
<polyline class="cls-4" points="237.54 299.52 237.54 616.47 70.14 616.47 70.33 280.4 231.74 280.4 244 292.67 237.38 299.29"/>
<path class="cls-4" d="M1985.58,2086.12l197.54-197.54s-492.39-496.35-494.37-494.37l-170.31,170.31v157.84l244.29,244.29,51.69-51.69,49.18,49.18,122,122-122-122L1705,2122.78h-38V2161l-101.14,101.14,32.22,32.23,89.56,89.55,297.95-297.82" transform="translate(-1272.26 -134.29)"/>
<polygon class="cls-4" points="416.19 1257.64 371 1302.84 280.9 1302.84 280.9 1068.15 373.57 1068.15 416.21 1110.79 416.19 1257.64"/>
<polyline class="cls-4" points="333.2 853.16 407 779.65 577.17 949.83 416.55 1110.44 307.3 1001.19 307.3 878.95 320.58 865.72"/>
<rect class="cls-4" x="1725.09" y="783.96" width="267.99" height="240.64" transform="translate(-1367.17 1445.13) rotate(-45)"/>
<polygon class="cls-4" points="618.12 568.27 596.36 590.03 766.65 760.32 910.05 616.91 632.03 338.88 510.38 460.53 618.12 568.27"/>
<polyline class="cls-4" points="196.4 1869.54 196.4 1986.12 73.1 1986.12 73.1 1869.54"/>
<polyline class="cls-4" points="196.4 1754.82 196.4 1869.54 73.5 1869.54 73.5 1754.82"/>
<polygon class="cls-4" points="72.97 1332.58 196.4 1332.58 196.4 1754.82 73.5 1754.82 72.97 1332.58"/>
</g>
<g id="toilets">
<polygon class="cls-5" points="340.93 580.27 386.52 625.86 531.02 481.37 485.27 435.63 340.93 580.27"/>
<polygon class="cls-5" points="244.2 1916.42 411.61 1916.42 457.86 1962.68 432.38 1988.16 244.1 1988.16 244.2 1916.42"/>
</g>
<g id="stairs_elevator">
<polyline class="cls-6" points="69.94 636.84 69.94 605.06 1.5 605.06 1.5 752.36 243.61 752.36 243.61 662.42 243.61 646.34 243.61 636.84 69.94 636.84 69.94 616.27"/>
<polygon class="cls-6" points="178.73 829.37 244.93 829.37 244.93 998.16 177.94 998.16 178.73 829.37"/>
<rect class="cls-7" x="73.1" y="2069.32" width="99.69" height="184.95"/>
</g>
<g id="walls">
<polygon class="cls-3" points="416.49 1110.38 416.49 1259.92 910.8 1754.22 410.75 2254.27 73.1 2254.27 73.1 752.36 1.5 752.36 1.5 605.19 70.33 605.19 70.33 280.4 232.14 280.4 232.14 1.5 420.05 1.5 420.05 126.91 910.2 617.06 577.17 949.83 416.49 1110.38"/>
<polygon class="cls-3" points="485.19 435.61 510.25 460.67 632.03 338.88 420.05 126.91 420.05 1.5 232.14 1.5 232.14 280.4 244.4 292.67 237.54 299.52 237.54 339.35 288.44 339.35 338.95 288.84 485.19 435.61"/>
<polyline class="cls-3" points="70.33 605.19 70.07 616.27 237.54 616.27 237.54 339.35"/>
<polyline class="cls-3" points="325.85 1347.79 244.8 1428.84 244.8 1588.07 327.48 1670.75 577.3 1420.93"/>
<polyline class="cls-3" points="327.48 1670.75 489.77 1833.05 542.16 1780.66 739.7 1583.13"/>
<polyline class="cls-3" points="506.69 1914.84 292.67 1700.82 244.1 1749.38 244.1 1988.22 394.73 1988.22"/>
<line class="cls-3" x1="458.42" y1="1963.04" x2="244.43" y2="1749.05"/>
<line class="cls-3" x1="262.01" y1="2028.58" x2="392.75" y2="2028.58"/>
<polyline class="cls-3" points="262.2 2110.27 286.43 2134.5 293.32 2127.61"/>
<polyline class="cls-3" points="173.19 2254.34 173.19 1986.12 196.93 1986.12 196.93 1311.21 170.82 1311.21 118.47 1258.86 73.24 1258.86"/>
<polyline class="cls-3" points="243.61 667.2 243.61 752.36 73.1 752.36"/>
<line class="cls-3" x1="243.61" y1="665.32" x2="243.61" y2="667.2"/>
<path class="cls-3" d="M1515.87,799.61" transform="translate(-1272.26 -134.29)"/>
<path class="cls-3" d="M1515.87,795.86" transform="translate(-1272.26 -134.29)"/>
<line class="cls-3" x1="243.61" y1="644.95" x2="243.61" y2="645.35"/>
<line class="cls-3" x1="243.61" y1="643.96" x2="243.61" y2="644.95"/>
<polyline class="cls-3" points="237.54 615.48 243.61 615.48 243.61 636.84 243.61 643.96"/>
<path class="cls-7" d="M727,1488" transform="translate(-1272.26 -134.29)"/>
</g>
<g id="doors">
<line class="cls-8" x1="320.58" y1="865.72" x2="333.2" y2="853.16"/>
<line class="cls-8" x1="421.81" y1="764.87" x2="434.43" y2="752.3"/>
<line class="cls-8" x1="607.55" y1="557.69" x2="594.98" y2="545.07"/>
<line class="cls-8" x1="479.65" y1="429.84" x2="467.08" y2="417.23"/>
<line class="cls-8" x1="274.64" y1="339.31" x2="256.83" y2="339.28"/>
<line class="cls-8" x1="237.53" y1="391.44" x2="237.56" y2="373.63"/>
<line class="cls-8" x1="237.51" y1="576.56" x2="237.55" y2="558.75"/>
<line class="cls-8" x1="243.58" y1="662.74" x2="243.61" y2="644.93"/>
<line class="cls-8" x1="215.74" y1="752.36" x2="197.93" y2="752.32"/>
<line class="cls-8" x1="178.03" y1="988.19" x2="178.55" y2="857.27"/>
<line class="cls-8" x1="316.69" y1="1658.96" x2="304.12" y2="1646.34"/>
<line class="cls-8" x1="196.71" y1="1383.3" x2="196.75" y2="1365.49"/>
<line class="cls-8" x1="280.88" y1="1288.06" x2="280.91" y2="1270.25"/>
<line class="cls-8" x1="280.98" y1="1095.7" x2="281.01" y2="1077.89"/>
<line class="cls-8" x1="196.71" y1="1723.52" x2="196.75" y2="1705.71"/>
<line class="cls-8" x1="173.31" y1="2097.42" x2="173.34" y2="2079.61"/>
<line class="cls-8" x1="316.95" y1="2151.14" x2="304.38" y2="2138.53"/>
<line class="cls-8" x1="562.29" y1="1800.79" x2="549.72" y2="1788.17"/>
<line class="cls-8" x1="353.54" y1="1695.8" x2="340.97" y2="1683.19"/>
<line class="cls-8" x1="512.18" y1="1908.96" x2="524.8" y2="1896.39"/>
</g></g>
<g id="Layer_2">
<line class="cls-9" x1="236.49" y1="567.21" x2="263.39" y2="567.21"/>
<line class="cls-9" x1="265.62" y1="385.24" x2="265.62" y2="567.08"/>
<line class="cls-9" x1="237.28" y1="382.47" x2="263.39" y2="382.47"/>
<line class="cls-9" x1="265.63" y1="340.14" x2="265.63" y2="382.47"/>
<line class="cls-9" x1="401.39" y1="495.28" x2="264.77" y2="631.9"/>
<line class="cls-9" x1="473.85" y1="422.82" x2="401.39" y2="495.28"/>
<line class="cls-9" x1="264.97" y1="569.59" x2="264.97" y2="654.64"/>
<line class="cls-9" x1="262.6" y1="653.85" x2="243.21" y2="653.85"/>
<line class="cls-9" x1="264.97" y1="657.41" x2="264.97" y2="696.18"/>
<line class="cls-9" x1="264.97" y1="695.79" x2="359.72" y2="790.53"/>
<line class="cls-9" x1="600.84" y1="552.18" x2="413.92" y2="739.1"/>
<line class="cls-9" x1="427.96" y1="757.9" x2="414.91" y2="744.84"/>
<line class="cls-9" x1="360.31" y1="791.92" x2="409.96" y2="742.27"/>
<line class="cls-9" x1="310.01" y1="842.09" x2="327.28" y2="859.37"/>
<line class="cls-9" x1="358.34" y1="793.63" x2="311.06" y2="840.91"/>
<line class="cls-9" x1="264.45" y1="698.03" x2="264.45" y2="784.01"/>
<line class="cls-9" x1="263.92" y1="788.75" x2="356.75" y2="788.75"/>
<line class="cls-9" x1="263.92" y1="791.39" x2="263.92" y2="878.95"/>
<line class="cls-9" x1="306.64" y1="844.66" x2="263.39" y2="887.92"/>
<line class="cls-9" x1="207.21" y1="789.81" x2="261.81" y2="789.81"/>
<line class="cls-9" x1="156.31" y1="789.81" x2="207.21" y2="789.81"/>
<line class="cls-9" x1="155.79" y1="791.92" x2="155.79" y2="911.13"/>
<line class="cls-9" x1="176.36" y1="910.6" x2="158.95" y2="910.6"/>
<line class="cls-9" x1="263.92" y1="883.17" x2="263.92" y2="1088.88"/>
<line class="cls-9" x1="281.32" y1="1086.77" x2="264.45" y2="1086.77"/>
<line class="cls-9" x1="263.92" y1="1277.72" x2="263.92" y2="1090.99"/>
<polyline class="cls-9" points="281.85 1278.78 263.92 1279.3 263.92 1277.72"/>
<line id='hissiviiva' class="cls-9" x1="155.79" y1="914.29" x2="155.79" y2="1082.55"/>
<line class="cls-9" x1="259.7" y1="1086.77" x2="155.26" y2="1086.77"/>
<line class="cls-9" x1="262.86" y1="1281.41" x2="220.4" y2="1323.87"/>
<line class="cls-9" x1="219.61" y1="1326.77" x2="219.61" y2="1374.25"/>
<line class="cls-9" x1="196.93" y1="1374.25" x2="217.5" y2="1374.25"/>
<line class="cls-9" x1="219.08" y1="1376.36" x2="219.08" y2="1603.7"/>
<path class="cls-9" d="M1490.81,1740.1" transform="translate(-1272.26 -134.29)"/>
<line class="cls-9" x1="218.55" y1="1600.01" x2="292.66" y2="1674.12"/>
<line class="cls-9" x1="309.81" y1="1652.75" x2="291.08" y2="1671.48"/>
<line class="cls-9" x1="218.55" y1="1605.81" x2="218.55" y2="1712.88"/>
<line class="cls-9" x1="196.93" y1="1713.94" x2="216.97" y2="1713.94"/>
<line class="cls-9" x1="293.46" y1="1677.02" x2="219.08" y2="1751.39"/>
<line class="cls-9" x1="218.03" y1="1716.05" x2="218.03" y2="1749.28"/>
<line class="cls-9" x1="295.57" y1="1678.07" x2="327.48" y2="1709.98"/>
<line class="cls-9" x1="346.73" y1="1690.2" x2="329.06" y2="1707.87"/>
<line class="cls-9" x1="329.32" y1="1711.83" x2="482.03" y2="1864.53"/>
<line class="cls-9" x1="483.87" y1="1866.91" x2="554.82" y2="1795.96"/>
<line class="cls-9" x1="485.98" y1="1868.49" x2="519.74" y2="1902.25"/>
<line class="cls-9" x1="218.03" y1="1754.03" x2="218.03" y2="2007.21"/>
<line class="cls-9" x1="220.66" y1="2006.69" x2="326.16" y2="2006.69"/>
<polyline class="cls-9" points="216.97 2009.32 216.97 2088.45 214.34 2087.92 173.19 2087.92"/>
<line class="cls-9" x1="216.97" y1="2091.08" x2="216.97" y2="2159.13"/>
<polyline class="cls-9" points="220.14 2158.6 296.62 2158.6 298.73 2157.02 312.18 2143.57"/>
<line class="cls-9" x1="206.95" y1="749.19" x2="206.95" y2="788.23"/>
<path class="cls-9" d="M1537.63,924.63" transform="translate(-1272.26 -134.29)"/>
<line class="cls-9" x1="308.09" y1="840.97" x2="266.55" y2="791.92"/>
<path class="cls-9" d="M1569.27,995.44" transform="translate(-1272.26 -134.29)"/>
</g>
</svg>